# xmcd
# 
# Track frame offsets:
#     150
#     12943
#     27471
#     39908
#     54521
#     67539
#     79837
#     92609
#     130760
#     160229
#     196115
#     241384
# 
# Disc length: 3739
# 
# Revision: 1
# Processed by: cddbd v1.5.2PL0 Copyright (c) Steve Scherf et al.
# Submitted via: fre:ac v1.0.27
# 
DISCID=880e990c
DTITLE=Charles Mingus - Modern Jazz Archive Disc 2 - Minor Intrusions
DYEAR=0
DGENRE=Jazz
TTITLE0=Extrasensory Perception
TTITLE1=Portrait (Take 1)
TTITLE2=Precognition
TTITLE3=Paris In Blue
TTITLE4=Montage
TTITLE5=(Medley) You Go To My Head
TTITLE6=Can You Blame Me
TTITLE7=Spur Of The Moment
TTITLE8=Thrice Upon A Theme
TTITLE9=What Is This Thing Called Love
TTITLE10=Minor Instrusions
TTITLE11=Four Hands
EXTD=
EXTT0=
EXTT1=
EXTT2=
EXTT3=
EXTT4=
EXTT5=
EXTT6=
EXTT7=
EXTT8=
EXTT9=
EXTT10=
EXTT11=
PLAYORDER=
